<?xml version="1.0" encoding="utf-8"?>
<!-- Generator: Adobe Illustrator 19.0.0, SVG Export Plug-In . SVG Version: 6.00 Build 0)  -->
<svg version="1.1" id="Calque_1" xmlns="http://www.w3.org/2000/svg" xmlns:xlink="http://www.w3.org/1999/xlink" x="0px" y="0px"
	 viewBox="0 0 163.6 64.1" style="enable-background:new 0 0 163.6 64.1;" xml:space="preserve">
<style type="text/css">
	.st0{clip-path:url(#SVGID_2_);fill:#080D10;}
	.st1{clip-path:url(#SVGID_2_);fill:#00A9A8;}
	.st2{fill:#080D10;}
	.st3{clip-path:url(#SVGID_4_);fill:#00A9A8;}
	.st4{clip-path:url(#SVGID_4_);fill:#080D10;}
</style>
<g>
	<defs>
		<rect id="SVGID_1_" y="0" width="163.6" height="64.1"/>
	</defs>
	<clipPath id="SVGID_2_">
		<use xlink:href="#SVGID_1_"  style="overflow:visible;"/>
	</clipPath>
	<path class="st0" d="M23.1,22.8c0,5.2-3.5,8.4-7.8,8.4c-4.3,0-7.9-3.1-7.9-8.4c0-5.3,3.5-8.5,7.9-8.5
		C19.6,14.3,23.1,17.6,23.1,22.8 M24.5,6.4l-2.2,2.8c-2.1-1.4-4.5-1.7-6.9-1.7C6.9,7.5,0,13.4,0,22.8C0,32.3,5.9,38,15.3,38
		c3.7,0,7.7,1.9,7.7,6.1c0,4.2-3.4,6.5-7.7,6.5c-4.3,0-7.9-2.6-7.9-6.5H0c0,8.1,6.5,13.5,15.3,13.5c8.8,0,15.1-5.1,15.1-13.5
		c0-3.9-1.2-7.5-6.2-10c5-2.3,6.4-7.5,6.4-11.3c0-3.3-0.9-6.3-3.2-8.9l2.9-3.7c-0.2,0-0.4,0.1-0.6,0.1C27.2,10.2,25.2,8.6,24.5,6.4"
		/>
	<path class="st0" d="M58.1,20.1c-0.5-3.9-3.6-5.9-7.8-5.9c-4,0-7.3,2-8.4,5.9H58.1z M41.7,26.3c0.5,3.7,3.7,6.4,9,6.4
		c2.8,0,6.4-1,8.1-2.8l4.8,4.7c-3.2,3.3-8.4,4.9-13,4.9C40.2,39.5,34,33.1,34,23.4c0-9.2,6.2-15.8,16-15.8
		c10.1,0,16.4,6.2,15.2,18.7H41.7z"/>
	<path class="st0" d="M80.3,0v8.6h8.3V15h-8.4v13c0,2.9,1.6,4.3,3.9,4.3c1.2,0,2.5-0.4,3.6-0.9l2.1,6.4c-2.1,0.9-3.9,1.2-6.2,1.3
		c-6.5,0.2-10.8-3.5-10.8-11V15h-5.6V8.6h5.6V0.8L80.3,0z"/>
	<path class="st1" d="M101.8,8.5v15.8c0,4.6,2.5,8.1,7.3,8.1c4.6,0,7.7-3.9,7.7-8.4V8.5h7.4v30.2h-6.7l-0.5-4.1
		c-3.1,3.1-6,4.5-10.2,4.5c-7.2,0-12.5-5.4-12.5-14.8V8.5H101.8z"/>
	<path class="st1" d="M156.2,23.6c0,4.7-3.5,8.6-8.6,8.6c-5.1,0-8.6-3.9-8.6-8.6c0-4.7,3.2-8.6,8.6-8.6
		C153,15.1,156.2,18.9,156.2,23.6 M163.6,23.6c0-8.9-6.2-15.8-15.5-15.8c-3.4,0-7.5,1.5-9.8,4.8l-0.5-4.2h-7v40.3
		c1-0.9,2.3-1.5,3.8-1.5c1.4,0,2.7,0.6,3.7,1.5V35.1c2.1,3.3,6.9,4.3,10,4.3C158.1,39.4,163.6,32.4,163.6,23.6"/>
	<path class="st0" d="M35.2,52.2c0,2.6,1.9,4.3,4.2,4.3c5.8,0,5.8-8.7,0-8.7C37.1,47.9,35.2,49.6,35.2,52.2 M44.7,47v10.4h-1v-2.2
		c-1,1.6-2.6,2.4-4.2,2.4c-2.9,0-5.3-2.2-5.3-5.3c0-3.2,2.4-5.3,5.3-5.3c1.7,0,3.4,0.8,4.2,2.4V47H44.7z"/>
	<path class="st0" d="M52.2,51.9c0,2.1,1.5,4,3.8,4c2.1,0,3.9-1.8,3.9-4c0-2.6-1.7-4-3.9-4C54,47.9,52.2,49.2,52.2,51.9 M60,46.6
		l0.7,0.6l-1,1.2c0.7,0.8,1.3,1.8,1.3,3.5c0,1.8-1.1,3.6-2.8,4.4C60,56.9,61,58.2,61,60c0,2.8-2.2,4.1-4.9,4.1
		c-2.7,0-4.9-1.5-4.9-4.1h1c0,2.1,1.8,3.1,3.9,3.1c2.1,0,3.9-0.9,3.9-3.1c0-2.2-2-3.1-3.9-3.1c-3,0-4.9-2.2-4.9-5c0-3.2,2.2-5,4.9-5
		c1.1,0,2.1,0.4,2.9,0.9L60,46.6z"/>
	<path class="st0" d="M76.2,51.8c0-2.6-1.7-4-4.2-4c-2.1,0-4,1.4-4.2,4H76.2z M66.7,52.2c0-3.1,2.4-5.3,5.3-5.3
		c2.9,0,5.5,1.8,5.1,5.8h-9.3c0.2,2.4,2.1,3.8,4.2,3.8c1.4,0,3-0.5,3.7-1.6l0.7,0.6c-1,1.3-2.8,2-4.5,2
		C69.1,57.5,66.7,55.5,66.7,52.2"/>
	<path class="st0" d="M85,47v1.8c0.8-1.4,2.2-2,3.7-2c2.8,0,4.7,1.7,4.7,4.6v6h-1v-6c0-2.3-1.4-3.6-3.7-3.6c-2.1,0-3.6,1.6-3.6,3.8
		v5.8h-1V47H85z"/>
	<path class="st0" d="M108.7,55.9c-1,1.1-2.4,1.6-3.8,1.6c-2.9,0-5.3-2-5.3-5.3c0-3.3,2.3-5.3,5.3-5.3c1.4,0,2.7,0.5,3.8,1.5
		l-0.7,0.7c-0.8-0.8-2-1.2-3.1-1.2c-2.3,0-4.3,1.5-4.3,4.3c0,2.8,2,4.3,4.3,4.3c1.1,0,2.2-0.4,3.1-1.3L108.7,55.9z"/>
</g>
<polygon class="st2" points="123.8,47 117.5,61.7 116.4,61.7 118.3,57.3 114.2,47 115.3,47 117.7,53.1 118.9,56.1 120.1,53.1 
	122.7,47 "/>
<g>
	<defs>
		<rect id="SVGID_3_" y="0" width="163.6" height="64.1"/>
	</defs>
	<clipPath id="SVGID_4_">
		<use xlink:href="#SVGID_3_"  style="overflow:visible;"/>
	</clipPath>
	<path class="st3" d="M33.6,4.7c0,2.2-1.7,3.9-3.9,3.9c-2.2,0-3.9-1.7-3.9-3.9c0-2.2,1.7-3.9,3.9-3.9C31.8,0.8,33.6,2.5,33.6,4.7"/>
	<path class="st4" d="M138.5,52.9c0,2.2-1.7,3.9-3.9,3.9c-2.2,0-3.9-1.7-3.9-3.9c0-2.2,1.7-3.9,3.9-3.9
		C136.8,49,138.5,50.7,138.5,52.9"/>
</g>
</svg>
